<mxfile host="app.diagrams.net" agent="Mozilla/5.0 (Windows NT 10.0; Win64; x64) AppleWebKit/537.36 (KHTML, like Gecko) Chrome/135.0.0.0 Safari/537.36" version="26.2.5">
  <diagram id="C5RBs43oDa-KdzZeNtuy" name="Page-1">
    <mxGraphModel dx="1428" dy="795" grid="1" gridSize="10" guides="1" tooltips="1" connect="1" arrows="1" fold="1" page="1" pageScale="1" pageWidth="827" pageHeight="1169" math="0" shadow="0">
      <root>
        <mxCell id="WIyWlLk6GJQsqaUBKTNV-0" />
        <mxCell id="WIyWlLk6GJQsqaUBKTNV-1" parent="WIyWlLk6GJQsqaUBKTNV-0" />
        <mxCell id="nSnrfxxBWp4Ek2YSxH7z-31" value="" style="edgeStyle=orthogonalEdgeStyle;rounded=0;orthogonalLoop=1;jettySize=auto;html=1;fontFamily=Times New Roman;" parent="WIyWlLk6GJQsqaUBKTNV-1" source="nSnrfxxBWp4Ek2YSxH7z-28" edge="1">
          <mxGeometry relative="1" as="geometry">
            <mxPoint x="120" y="90" as="targetPoint" />
          </mxGeometry>
        </mxCell>
        <mxCell id="nSnrfxxBWp4Ek2YSxH7z-28" value="Read Transactions" style="rounded=1;whiteSpace=wrap;html=1;fontSize=12;glass=0;strokeWidth=1;shadow=0;fontFamily=Times New Roman;" parent="WIyWlLk6GJQsqaUBKTNV-1" vertex="1">
          <mxGeometry x="60" y="10" width="120" height="40" as="geometry" />
        </mxCell>
        <mxCell id="nSnrfxxBWp4Ek2YSxH7z-44" value="" style="edgeStyle=orthogonalEdgeStyle;rounded=0;orthogonalLoop=1;jettySize=auto;html=1;fontFamily=Times New Roman;" parent="WIyWlLk6GJQsqaUBKTNV-1" source="nSnrfxxBWp4Ek2YSxH7z-42" edge="1">
          <mxGeometry relative="1" as="geometry">
            <mxPoint x="120" y="190" as="targetPoint" />
          </mxGeometry>
        </mxCell>
        <mxCell id="nSnrfxxBWp4Ek2YSxH7z-42" value="Initialize list &quot;transactions&quot;" style="rounded=0;whiteSpace=wrap;html=1;fontFamily=Times New Roman;" parent="WIyWlLk6GJQsqaUBKTNV-1" vertex="1">
          <mxGeometry x="60" y="90" width="120" height="60" as="geometry" />
        </mxCell>
        <mxCell id="nSnrfxxBWp4Ek2YSxH7z-90" value="" style="edgeStyle=orthogonalEdgeStyle;rounded=0;orthogonalLoop=1;jettySize=auto;html=1;fontFamily=Times New Roman;" parent="WIyWlLk6GJQsqaUBKTNV-1" source="nSnrfxxBWp4Ek2YSxH7z-87" target="nSnrfxxBWp4Ek2YSxH7z-88" edge="1">
          <mxGeometry relative="1" as="geometry" />
        </mxCell>
        <mxCell id="nSnrfxxBWp4Ek2YSxH7z-87" value="Open file at &quot;file_path&quot; in read mode" style="rounded=0;whiteSpace=wrap;html=1;fontFamily=Times New Roman;" parent="WIyWlLk6GJQsqaUBKTNV-1" vertex="1">
          <mxGeometry x="60" y="190" width="120" height="60" as="geometry" />
        </mxCell>
        <mxCell id="nSnrfxxBWp4Ek2YSxH7z-91" value="" style="edgeStyle=orthogonalEdgeStyle;rounded=0;orthogonalLoop=1;jettySize=auto;html=1;fontFamily=Times New Roman;" parent="WIyWlLk6GJQsqaUBKTNV-1" source="nSnrfxxBWp4Ek2YSxH7z-88" edge="1">
          <mxGeometry relative="1" as="geometry">
            <mxPoint x="120" y="390" as="targetPoint" />
          </mxGeometry>
        </mxCell>
        <mxCell id="nSnrfxxBWp4Ek2YSxH7z-88" value="&lt;div&gt;Create &quot;csv.DictReader&quot; object&lt;/div&gt;" style="rounded=0;whiteSpace=wrap;html=1;fontFamily=Times New Roman;" parent="WIyWlLk6GJQsqaUBKTNV-1" vertex="1">
          <mxGeometry x="60" y="290" width="120" height="60" as="geometry" />
        </mxCell>
        <mxCell id="nSnrfxxBWp4Ek2YSxH7z-96" value="" style="edgeStyle=orthogonalEdgeStyle;rounded=0;orthogonalLoop=1;jettySize=auto;html=1;fontFamily=Times New Roman;" parent="WIyWlLk6GJQsqaUBKTNV-1" source="nSnrfxxBWp4Ek2YSxH7z-93" target="nSnrfxxBWp4Ek2YSxH7z-94" edge="1">
          <mxGeometry relative="1" as="geometry" />
        </mxCell>
        <mxCell id="nSnrfxxBWp4Ek2YSxH7z-93" value="&lt;div&gt;&lt;div&gt;Append &quot;row&quot; to &quot;transactions&quot;&lt;/div&gt;&lt;/div&gt;" style="rounded=0;whiteSpace=wrap;html=1;fontFamily=Times New Roman;" parent="WIyWlLk6GJQsqaUBKTNV-1" vertex="1">
          <mxGeometry x="60" y="390" width="120" height="60" as="geometry" />
        </mxCell>
        <mxCell id="nSnrfxxBWp4Ek2YSxH7z-97" value="" style="edgeStyle=orthogonalEdgeStyle;rounded=0;orthogonalLoop=1;jettySize=auto;html=1;fontFamily=Times New Roman;" parent="WIyWlLk6GJQsqaUBKTNV-1" source="nSnrfxxBWp4Ek2YSxH7z-94" target="nSnrfxxBWp4Ek2YSxH7z-95" edge="1">
          <mxGeometry relative="1" as="geometry" />
        </mxCell>
        <mxCell id="nSnrfxxBWp4Ek2YSxH7z-94" value="&lt;div&gt;&lt;div&gt;Close the file&lt;/div&gt;&lt;/div&gt;" style="rounded=0;whiteSpace=wrap;html=1;fontFamily=Times New Roman;" parent="WIyWlLk6GJQsqaUBKTNV-1" vertex="1">
          <mxGeometry x="60" y="490" width="120" height="60" as="geometry" />
        </mxCell>
        <mxCell id="nSnrfxxBWp4Ek2YSxH7z-95" value="&lt;div&gt;Return &quot;transactions&quot; list&lt;/div&gt;" style="rounded=1;whiteSpace=wrap;html=1;fontSize=12;glass=0;strokeWidth=1;shadow=0;fontFamily=Times New Roman;" parent="WIyWlLk6GJQsqaUBKTNV-1" vertex="1">
          <mxGeometry x="60" y="590" width="120" height="60" as="geometry" />
        </mxCell>
      </root>
    </mxGraphModel>
  </diagram>
</mxfile>
